<?xml version="1.0" standalone="no"?>
<!DOCTYPE svg PUBLIC "-//W3C//DTD SVG 20010904//EN"
 "http://www.w3.org/TR/2001/REC-SVG-20010904/DTD/svg10.dtd">
<svg version="1.0" xmlns="http://www.w3.org/2000/svg"
 width="204.000000pt" height="208.000000pt" viewBox="0 0 204.000000 208.000000"
 preserveAspectRatio="xMidYMid meet">
<metadata>
Created by potrace 1.16, written by Peter Selinger 2001-2019
</metadata>
<g transform="translate(0.000000,208.000000) scale(0.100000,-0.100000)"
fill="#000000" stroke="none">
<path d="M872 2064 c-26 -18 -30 -75 -7 -94 12 -10 15 -38 15 -130 0 -115 0
-117 25 -128 14 -7 28 -12 30 -12 3 0 5 58 5 129 0 102 3 131 15 141 23 19 19
76 -7 94 -12 9 -29 16 -38 16 -9 0 -26 -7 -38 -16z"/>
<path d="M1317 2060 c-21 -17 -40 -20 -130 -20 -58 0 -112 -3 -121 -6 -14 -5
-16 -31 -16 -181 l0 -174 25 18 c24 18 24 21 25 151 l0 132 104 0 c80 0 106
-3 116 -15 17 -21 63 -19 83 3 25 27 22 78 -5 96 -30 21 -50 20 -81 -4z"/>
<path d="M517 1872 c-22 -25 -21 -75 1 -95 25 -23 65 -21 87 3 14 15 31 20 72
20 l53 0 0 -46 c0 -38 3 -45 16 -40 9 3 22 6 30 6 12 0 14 13 12 63 l-3 62
-81 3 c-66 2 -85 7 -99 22 -23 25 -67 26 -88 2z"/>
<path d="M1358 1820 c-18 -14 -44 -20 -94 -22 l-69 -3 -3 -31 c-3 -26 1 -33
20 -38 34 -9 38 -8 38 9 0 24 81 20 103 -5 9 -11 29 -20 45 -20 59 0 87 76 42
112 -29 23 -51 23 -82 -2z"/>
<path d="M795 1639 c-43 -12 -102 -64 -116 -102 -9 -25 -25 -39 -73 -62 -75
-37 -116 -96 -124 -178 -4 -44 -10 -56 -37 -79 -40 -34 -85 -120 -85 -163 0
-44 18 -92 54 -145 22 -32 29 -54 27 -80 -3 -44 20 -110 54 -155 27 -34 114
-85 146 -85 10 0 26 -18 39 -44 30 -62 97 -106 161 -106 63 0 89 11 133 56
l37 38 25 -32 c69 -88 199 -83 282 12 16 19 33 44 37 55 3 11 21 25 41 31 75
25 144 120 144 200 0 29 9 44 45 80 45 44 75 108 75 161 0 41 -28 111 -56 140
-20 21 -25 38 -28 85 -3 68 -29 124 -78 171 -31 31 -102 63 -137 63 -9 0 -23
17 -32 39 -20 46 -85 98 -136 107 -49 9 -111 -12 -151 -52 -19 -19 -36 -34
-39 -34 -3 0 -14 12 -26 26 -24 31 -91 64 -127 63 -14 0 -38 -5 -55 -10z m109
-70 c15 -12 39 -39 52 -61 22 -34 29 -39 57 -36 24 2 33 8 35 25 2 13 17 36
33 53 53 52 103 52 163 -1 43 -38 53 -76 31 -123 -18 -39 -15 -66 9 -66 14 0
38 26 61 65 10 16 13 16 52 0 80 -32 134 -123 114 -193 -9 -29 -6 -37 29 -77
78 -90 75 -164 -10 -237 -46 -40 -50 -47 -50 -88 0 -56 -28 -119 -65 -148 -37
-29 -52 -28 -70 8 -16 32 -88 90 -111 90 -7 0 -18 -9 -24 -19 -8 -17 -6 -23
16 -38 59 -40 74 -61 74 -101 0 -68 -61 -122 -138 -122 -50 0 -86 34 -105 99
-11 41 -16 46 -43 49 -28 3 -32 -1 -42 -36 -34 -114 -136 -150 -213 -76 -58
55 -46 127 27 170 46 27 54 44 30 63 -29 24 -123 -44 -141 -100 -4 -10 -13
-19 -21 -19 -32 0 -95 43 -121 82 -24 35 -28 51 -26 104 2 59 0 65 -32 99 -72
76 -67 156 16 235 44 42 49 52 49 90 0 57 34 127 74 151 42 26 51 24 66 -12 7
-17 24 -38 37 -46 22 -15 26 -15 41 0 15 15 14 19 -6 47 -12 16 -25 42 -28 57
-11 58 61 133 127 133 14 0 38 -10 53 -21z"/>
<path d="M825 1153 c-21 -54 -51 -133 -66 -175 l-29 -78 55 0 c50 0 55 2 61
25 6 24 10 25 74 25 64 0 69 -2 72 -22 3 -21 10 -23 62 -26 53 -3 58 -1 51 15
-3 10 -27 73 -51 139 -76 211 -65 194 -132 194 l-59 0 -38 -97z"/>
<path d="M1150 1075 l0 -175 55 0 55 0 0 175 0 175 -55 0 -55 0 0 -175z"/>
<path d="M217 1502 c-21 -23 -22 -62 -2 -88 9 -12 14 -43 15 -89 0 -42 5 -76
12 -83 19 -19 109 -14 136 7 36 30 27 41 -33 41 l-55 0 0 51 c0 36 6 58 20 76
24 31 25 51 4 81 -19 28 -74 30 -97 4z"/>
<path d="M1676 1498 c-22 -30 -20 -61 4 -83 28 -25 29 -105 1 -105 -12 0 -20
-9 -24 -26 -5 -30 7 -37 55 -32 l33 3 3 70 c2 53 8 74 23 88 24 22 25 69 1 90
-27 25 -78 22 -96 -5z"/>
<path d="M1917 1462 c-21 -23 -22 -65 -2 -82 12 -10 15 -36 15 -116 l0 -104
-105 0 c-58 0 -105 -4 -105 -8 0 -5 6 -16 13 -25 11 -15 28 -17 132 -15 l120
3 3 120 c2 103 5 122 22 137 25 23 26 70 2 91 -25 22 -75 21 -95 -1z"/>
<path d="M45 1168 c-11 -6 -23 -16 -27 -22 -14 -20 -8 -63 10 -79 23 -21 75
-22 92 -2 8 9 36 15 83 17 68 3 71 4 78 31 l7 27 -75 0 c-60 0 -80 4 -100 20
-29 23 -40 24 -68 8z"/>
<path d="M1944 1030 c-12 -5 -25 -13 -29 -19 -3 -6 -40 -11 -86 -11 -76 0 -80
-1 -89 -26 -6 -14 -10 -27 -10 -30 0 -2 40 -4 89 -4 66 0 92 -4 101 -15 17
-21 73 -19 93 3 18 19 22 59 9 78 -6 10 -47 35 -54 33 -2 0 -13 -4 -24 -9z"/>
<path d="M62 968 c-8 -8 -12 -50 -12 -125 0 -100 -2 -115 -20 -133 -42 -42
-13 -110 47 -110 49 0 83 71 48 100 -12 10 -15 36 -15 116 l0 104 100 0 101 0
-16 30 -16 30 -102 0 c-67 0 -107 -4 -115 -12z"/>
<path d="M1637 832 c-31 -34 -21 -42 48 -42 l65 0 0 -53 c0 -41 -5 -58 -20
-72 -26 -23 -25 -55 0 -83 25 -27 71 -29 93 -4 21 23 22 75 2 92 -11 9 -15 33
-15 84 0 43 -5 77 -12 84 -7 7 -40 12 -78 12 -52 0 -71 -4 -83 -18z"/>
<path d="M297 823 c-4 -3 -7 -33 -7 -66 0 -44 -5 -65 -20 -84 -40 -51 -14
-113 47 -113 30 0 63 34 63 65 0 14 -9 34 -20 45 -21 21 -29 95 -11 102 5 2
13 15 16 31 7 25 5 27 -27 27 -19 0 -38 -3 -41 -7z"/>
<path d="M933 383 c-22 -15 -23 -22 -23 -149 l0 -134 -104 0 c-80 0 -106 3
-116 15 -7 8 -25 15 -41 15 -51 0 -82 -54 -55 -95 24 -36 61 -42 96 -16 26 18
43 21 137 21 59 0 114 4 121 8 9 7 12 49 10 179 l-3 170 -22 -14z"/>
<path d="M1070 255 c0 -74 -4 -135 -9 -135 -5 0 -14 -13 -21 -30 -10 -25 -10
-34 4 -55 45 -68 141 -20 114 57 -6 16 -14 28 -19 28 -5 0 -9 54 -9 120 l0
119 -30 16 -30 16 0 -136z"/>
<path d="M566 355 c-24 -25 -29 -54 -12 -80 23 -34 60 -42 94 -19 17 12 52 21
97 24 l70 5 0 35 c0 31 -3 35 -27 38 -20 2 -28 -1 -28 -12 0 -25 -82 -22 -105
4 -21 24 -67 26 -89 5z"/>
<path d="M1237 363 c-15 -4 -17 -14 -15 -66 l3 -62 81 -3 c66 -2 85 -7 99 -22
39 -43 105 -13 105 47 0 57 -67 84 -105 43 -14 -15 -31 -20 -72 -20 l-53 0 0
45 c0 46 -3 48 -43 38z"/>
</g>
</svg>
