<?xml version="1.0" encoding="UTF-8"?>
<svg xmlns="http://www.w3.org/2000/svg" xmlns:xlink="http://www.w3.org/1999/xlink" width="70px" height="42px" viewBox="0 0 70 42" version="1.1">
<defs>
<linearGradient id="linear0" gradientUnits="userSpaceOnUse" x1="20.8871" y1="6.4798" x2="20.8871" y2="37.2331" gradientTransform="matrix(0.804598,0,0,1,0,0)">
<stop offset="0.15625" style="stop-color:rgb(78.039216%,79.215686%,99.215686%);stop-opacity:0.909804;"/>
<stop offset="0.557292" style="stop-color:rgb(63.137255%,64.705882%,89.019608%);stop-opacity:1;"/>
<stop offset="0.958333" style="stop-color:rgb(32.156863%,35.686275%,65.882353%);stop-opacity:1;"/>
</linearGradient>
<linearGradient id="linear1" gradientUnits="userSpaceOnUse" x1="65.753" y1="6.34314" x2="65.753" y2="37.0964" gradientTransform="matrix(0.804598,0,0,1,0,0)">
<stop offset="0.15625" style="stop-color:rgb(78.039216%,79.215686%,99.215686%);stop-opacity:0.909804;"/>
<stop offset="0.557292" style="stop-color:rgb(63.137255%,64.705882%,89.019608%);stop-opacity:1;"/>
<stop offset="0.958333" style="stop-color:rgb(32.156863%,35.686275%,65.882353%);stop-opacity:1;"/>
</linearGradient>
<linearGradient id="linear2" gradientUnits="userSpaceOnUse" x1="5.22521" y1="31.4879" x2="5.22521" y2="41.9383" gradientTransform="matrix(0.804598,0,0,1,0,0)">
<stop offset="0.15625" style="stop-color:rgb(78.039216%,79.215686%,99.215686%);stop-opacity:0.909804;"/>
<stop offset="0.557292" style="stop-color:rgb(63.137255%,64.705882%,89.019608%);stop-opacity:1;"/>
<stop offset="0.958333" style="stop-color:rgb(32.156863%,35.686275%,65.882353%);stop-opacity:1;"/>
</linearGradient>
<linearGradient id="linear3" gradientUnits="userSpaceOnUse" x1="5.22521" y1="0.136658" x2="5.22521" y2="10.5871" gradientTransform="matrix(0.804598,0,0,1,0,0)">
<stop offset="0.15625" style="stop-color:rgb(78.039216%,79.215686%,99.215686%);stop-opacity:0.909804;"/>
<stop offset="0.557292" style="stop-color:rgb(63.137255%,64.705882%,89.019608%);stop-opacity:1;"/>
<stop offset="0.958333" style="stop-color:rgb(32.156863%,35.686275%,65.882353%);stop-opacity:1;"/>
</linearGradient>
<linearGradient id="linear4" gradientUnits="userSpaceOnUse" x1="36.5766" y1="0.136658" x2="36.5766" y2="10.5871" gradientTransform="matrix(0.804598,0,0,1,0,0)">
<stop offset="0.15625" style="stop-color:rgb(78.039216%,79.215686%,99.215686%);stop-opacity:0.909804;"/>
<stop offset="0.557292" style="stop-color:rgb(63.137255%,64.705882%,89.019608%);stop-opacity:1;"/>
<stop offset="0.958333" style="stop-color:rgb(32.156863%,35.686275%,65.882353%);stop-opacity:1;"/>
</linearGradient>
<linearGradient id="linear5" gradientUnits="userSpaceOnUse" x1="36.5766" y1="31.4879" x2="36.5766" y2="41.9383" gradientTransform="matrix(0.804598,0,0,1,0,0)">
<stop offset="0.15625" style="stop-color:rgb(78.039216%,79.215686%,99.215686%);stop-opacity:0.909804;"/>
<stop offset="0.557292" style="stop-color:rgb(63.137255%,64.705882%,89.019608%);stop-opacity:1;"/>
<stop offset="0.958333" style="stop-color:rgb(32.156863%,35.686275%,65.882353%);stop-opacity:1;"/>
</linearGradient>
<linearGradient id="linear6" gradientUnits="userSpaceOnUse" x1="50.0909" y1="31.3513" x2="50.0909" y2="41.8017" gradientTransform="matrix(0.804598,0,0,1,0,0)">
<stop offset="0.15625" style="stop-color:rgb(78.039216%,79.215686%,99.215686%);stop-opacity:0.909804;"/>
<stop offset="0.557292" style="stop-color:rgb(63.137255%,64.705882%,89.019608%);stop-opacity:1;"/>
<stop offset="0.958333" style="stop-color:rgb(32.156863%,35.686275%,65.882353%);stop-opacity:1;"/>
</linearGradient>
<linearGradient id="linear7" gradientUnits="userSpaceOnUse" x1="50.0909" y1="0" x2="50.0909" y2="10.4504" gradientTransform="matrix(0.804598,0,0,1,0,0)">
<stop offset="0.15625" style="stop-color:rgb(78.039216%,79.215686%,99.215686%);stop-opacity:0.909804;"/>
<stop offset="0.557292" style="stop-color:rgb(63.137255%,64.705882%,89.019608%);stop-opacity:1;"/>
<stop offset="0.958333" style="stop-color:rgb(32.156863%,35.686275%,65.882353%);stop-opacity:1;"/>
</linearGradient>
<linearGradient id="linear8" gradientUnits="userSpaceOnUse" x1="81.4421" y1="0" x2="81.4421" y2="10.4504" gradientTransform="matrix(0.804598,0,0,1,0,0)">
<stop offset="0.15625" style="stop-color:rgb(78.039216%,79.215686%,99.215686%);stop-opacity:0.909804;"/>
<stop offset="0.557292" style="stop-color:rgb(63.137255%,64.705882%,89.019608%);stop-opacity:1;"/>
<stop offset="0.958333" style="stop-color:rgb(32.156863%,35.686275%,65.882353%);stop-opacity:1;"/>
</linearGradient>
<linearGradient id="linear9" gradientUnits="userSpaceOnUse" x1="81.4421" y1="31.3513" x2="81.4421" y2="41.8017" gradientTransform="matrix(0.804598,0,0,1,0,0)">
<stop offset="0.15625" style="stop-color:rgb(78.039216%,79.215686%,99.215686%);stop-opacity:0.909804;"/>
<stop offset="0.557292" style="stop-color:rgb(63.137255%,64.705882%,89.019608%);stop-opacity:1;"/>
<stop offset="0.958333" style="stop-color:rgb(32.156863%,35.686275%,65.882353%);stop-opacity:1;"/>
</linearGradient>
</defs>
<g id="surface1">
<path style=" stroke:none;fill-rule:nonzero;fill:url(#linear0);" d="M 6.207031 37.234375 L 27.425781 37.234375 L 22.277344 33.976562 L 22.277344 33.128906 C 22.277344 32.773438 22.363281 32.445312 22.539062 32.171875 C 22.871094 31.625 24.234375 28.480469 24.652344 25.140625 C 24.851562 24.429688 25.6875 21.257812 25.621094 20.300781 C 25.578125 19.476562 25.179688 18.765625 25.003906 18.492188 L 25.09375 14.855469 C 25.179688 11.460938 23.96875 9.300781 21.679688 8.726562 C 21.308594 8.070312 20.46875 6.566406 16.707031 6.484375 C 13.425781 6.402344 11.117188 7.632812 9.640625 10.230469 C 8.871094 11.597656 8.472656 13.1875 8.519531 14.855469 L 8.605469 18.492188 C 8.429688 18.792969 8.054688 19.503906 7.988281 20.300781 C 7.925781 21.230469 8.761719 24.402344 8.957031 25.140625 C 9.375 28.507812 10.742188 31.625 11.070312 32.171875 C 11.246094 32.445312 11.335938 32.773438 11.335938 33.128906 L 11.335938 33.976562 L 6.183594 37.234375 Z M 21.679688 19.804688 L 15.472656 27.519531 L 11.996094 23.199219 L 13.492188 21.339844 L 15.496094 23.828125 L 20.230469 17.945312 L 21.726562 19.804688 Z M 21.679688 19.804688 "/>
<path style=" stroke:none;fill-rule:nonzero;fill:url(#linear1);" d="M 58.640625 32.035156 C 58.96875 31.488281 60.332031 28.34375 60.75 25.003906 C 60.949219 24.292969 61.785156 21.121094 61.71875 20.164062 C 61.675781 19.339844 61.28125 18.628906 61.105469 18.355469 L 61.191406 14.71875 C 61.28125 11.296875 60.089844 9.164062 57.78125 8.589844 C 57.40625 7.933594 56.570312 6.429688 52.804688 6.347656 C 49.527344 6.265625 47.214844 7.496094 45.738281 10.09375 C 44.96875 11.460938 44.574219 13.050781 44.617188 14.71875 L 44.707031 18.355469 C 44.53125 18.65625 44.15625 19.367188 44.089844 20.164062 C 44.023438 21.09375 44.859375 24.265625 45.058594 25.003906 C 45.476562 28.371094 46.839844 31.488281 47.171875 32.035156 C 47.347656 32.308594 47.433594 32.636719 47.433594 32.992188 L 47.433594 33.839844 L 42.285156 37.097656 L 63.523438 37.097656 L 58.375 33.839844 L 58.375 32.992188 C 58.375 32.636719 58.460938 32.308594 58.640625 32.035156 Z M 49.085938 19.230469 L 50.582031 17.371094 L 52.914062 20.273438 L 55.25 17.371094 L 56.746094 19.230469 L 54.414062 22.132812 L 56.746094 25.03125 L 55.25 26.890625 L 52.914062 23.992188 L 50.582031 26.890625 L 49.085938 25.03125 L 51.417969 22.132812 Z M 49.085938 19.230469 "/>
<path style=" stroke:none;fill-rule:nonzero;fill:url(#linear2);" d="M 8.410156 40.1875 L 1.410156 40.1875 L 1.410156 31.488281 L 0 31.488281 L 0 41.9375 L 8.410156 41.9375 Z M 8.410156 40.1875 "/>
<path style=" stroke:none;fill-rule:nonzero;fill:url(#linear3);" d="M 0 10.585938 L 1.410156 10.585938 L 1.410156 1.886719 L 8.410156 1.886719 L 8.410156 0.136719 L 0 0.136719 Z M 0 10.585938 "/>
<path style=" stroke:none;fill-rule:nonzero;fill:url(#linear4);" d="M 33.632812 0.136719 L 25.226562 0.136719 L 25.226562 1.886719 L 32.246094 1.886719 L 32.246094 10.585938 L 33.632812 10.585938 Z M 33.632812 0.136719 "/>
<path style=" stroke:none;fill-rule:nonzero;fill:url(#linear5);" d="M 33.632812 31.488281 L 32.246094 31.488281 L 32.246094 40.1875 L 25.226562 40.1875 L 25.226562 41.9375 L 33.632812 41.9375 Z M 33.632812 31.488281 "/>
<path style=" stroke:none;fill-rule:nonzero;fill:url(#linear6);" d="M 44.507812 40.050781 L 37.507812 40.050781 L 37.507812 31.351562 L 36.097656 31.351562 L 36.097656 41.800781 L 44.507812 41.800781 Z M 44.507812 40.050781 "/>
<path style=" stroke:none;fill-rule:nonzero;fill:url(#linear7);" d="M 44.507812 0 L 36.097656 0 L 36.097656 10.449219 L 37.507812 10.449219 L 37.507812 1.75 L 44.507812 1.75 Z M 44.507812 0 "/>
<path style=" stroke:none;fill-rule:nonzero;fill:url(#linear8);" d="M 61.324219 1.75 L 68.324219 1.75 L 68.324219 10.449219 L 69.730469 10.449219 L 69.730469 0 L 61.324219 0 Z M 61.324219 1.75 "/>
<path style=" stroke:none;fill-rule:nonzero;fill:url(#linear9);" d="M 68.324219 40.050781 L 61.324219 40.050781 L 61.324219 41.800781 L 69.730469 41.800781 L 69.730469 31.351562 L 68.324219 31.351562 Z M 68.324219 40.050781 "/>
</g>
</svg>
