<svg xmlns="http://www.w3.org/2000/svg" xmlns:xlink="http://www.w3.org/1999/xlink" version="1.1" x="0px" y="0px" viewBox="0 0 66 82.5" enable-background="new 0 0 66 66" xml:space="preserve"><g><path d="M56.9,12.6c0.6-1.2,1.1-2.5,1.1-3.9c0-4-2.9-7.3-6.5-7.3c-3.6,0-6.5,3.3-6.5,7.3c0,1.3,0.4,2.7,1.1,3.9   c-2.1,1.4-4.2,1.9-6.1,4.5c-4.4-1.7-9.4-1.7-13.8,0c-1.9-2.6-3.9-3.2-6.1-4.6c0.6-1.2,1.1-2.5,1.1-3.9c0-4-2.9-7.3-6.5-7.3   C10.9,1.4,8,4.7,8,8.7c0,1.3,0.4,2.7,1.1,3.9c-1.9,1.3-4.8,2.1-6.7,5.5C1.5,19.6,1,21.4,1,23.2c0,1,0.8,1.8,1.8,1.8h13.9   c-4.6,7.5-3.6,17.3,2.8,23.6c5.8,5.8,14.8,7.4,22.4,3.4l2.1,2.1c0.8,0.8,2.1,0.8,2.9,0l0.3-0.3c2.2,3,7.9,10.4,11.3,10.8   c0.1,0,0.1,0,0.2,0c1.7,0,4-2.3,3.8-4.1c-0.4-3.4-7.7-9.1-10.8-11.3l0.3-0.3c0.8-0.8,0.8-2.1,0-2.9L50,43.9c1.2-2.3,2-4.9,2.1-7.5   c0.3-4-0.7-8-2.8-11.4h13.8c1,0,1.8-0.8,1.8-1.8C65,15.7,57.8,13.4,56.9,12.6z M51.5,3.4C54,3.4,56,5.8,56,8.8   c0,3.1-3.1,6.2-4.5,6.2c-1.4,0-4.5-3.1-4.5-6.2C47,5.8,49,3.4,51.5,3.4z M14.5,3.4C17,3.4,19,5.8,19,8.7c0,3.1-3.1,6.2-4.5,6.2   S10,11.8,10,8.7C10,5.8,12,3.4,14.5,3.4z M4.1,19.1c1.6-2.8,3.9-3.3,6.1-4.8c1.3,1.6,3,2.6,4.3,2.6c1.4,0,3-1.1,4.3-2.6   c2.5,1.6,3.9,2,5.4,3.8c-1.8,0.9-3.4,2.1-4.8,3.5c-0.5,0.5-0.9,1-1.3,1.5H3C3,21.6,3.4,20.3,4.1,19.1z M28.6,31.8   c0-2.4,2-4.4,4.4-4.4c2.4,0,4.4,2,4.4,4.4s-2,4.4-4.4,4.4C30.6,36.1,28.6,34.2,28.6,31.8z M33,38.1c5.8,0,10.5,4.4,10.9,10.2   c-6.5,5.3-15.6,5.1-21.8,0C22.5,42.6,27.2,38.1,33,38.1z M58.7,62.6L58.7,62.6c-0.6-0.1-1.5-0.6-2.5-1.5l2.9-2.8   c0.8,1,1.4,1.9,1.5,2.5C60.6,61.3,59.3,62.6,58.7,62.6z M57.7,56.8l-3,2.9c-2.1-2.1-4.4-4.9-6.2-7.4l0.9-0.9l0.9-0.9   C52.8,52.4,55.7,54.8,57.7,56.8z M50.7,47.5l-5.3,5.2L43.6,51c2.2-1.5,3.9-3.2,5.3-5.3L50.7,47.5z M50.1,36.3   c-0.3,3.9-1.9,7.5-4.5,10.4c-0.9-4.6-4.3-8.4-8.7-9.9c1.5-1.2,2.4-3,2.4-5c0-3.5-2.9-6.4-6.4-6.4s-6.4,2.9-6.4,6.4   c0,2,0.9,3.8,2.4,5c-4.5,1.4-7.8,5.2-8.7,9.9c-6.1-6.7-6-17.2,0.5-23.7c1.5-1.5,3.3-2.7,5.2-3.6c6.5-2.8,14-1.4,19,3.6   c0.6,0.6,1.1,1.1,1.5,1.8C49.2,27.9,50.4,32.1,50.1,36.3z M47.9,23c-0.4-0.5-0.9-1.1-1.4-1.6c-1.4-1.4-3-2.6-4.8-3.5   c1.5-1.8,2.9-2.2,5.3-3.7c1.3,1.6,3,2.6,4.3,2.6c1.4,0,3-1.1,4.3-2.6c1.2,1,7.1,2.6,7.2,8.7H47.9z"/></g><text x="0" y="81" fill="#000000" font-size="5px" font-weight="bold" font-family="'Helvetica Neue', Helvetica, Arial-Unicode, Arial, Sans-serif">Created by ProSymbols</text><text x="0" y="86" fill="#000000" font-size="5px" font-weight="bold" font-family="'Helvetica Neue', Helvetica, Arial-Unicode, Arial, Sans-serif">from the Noun Project</text></svg>