<svg xmlns="http://www.w3.org/2000/svg" viewBox="0 0 128 160" fill="none" x="0px" y="0px"><path fill-rule="evenodd" clip-rule="evenodd" d="M49 13C50.1046 13 51 13.8954 51 15V69C51 69.8058 50.5164 70.5329 49.7733 70.8445C49.0301 71.156 48.1726 70.9912 47.598 70.4263L37.598 60.5962C36.8102 59.8219 36.7994 58.5556 37.5737 57.7679C38.3481 56.9801 39.6143 56.9693 40.402 57.7436L45.299 62.5574C45.9314 63.179 47 62.731 47 61.8442V15C47 13.8954 47.8954 13 49 13ZM79 115C77.8954 115 77 114.105 77 113V59C77 58.1942 77.4836 57.4671 78.2267 57.1555C78.9699 56.844 79.8274 57.0088 80.402 57.5737L90.402 67.4038C91.1898 68.1781 91.2006 69.4444 90.4263 70.2321C89.6519 71.0199 88.3857 71.0307 87.598 70.2564L82.701 65.4426C82.0686 64.821 81 65.269 81 66.1558V113C81 114.105 80.1046 115 79 115ZM36.0609 34.62L43.6173 31.49C44.2757 31.2173 45 31.7012 45 32.4139V57.0737C45 57.9605 43.9314 58.4085 43.299 57.7868L41.8041 56.3174C40.2287 54.7687 37.6961 54.7904 36.1474 56.3658C34.5988 57.9412 34.6205 60.4738 36.1959 62.0225L46.1959 71.8526C47.3452 72.9823 49.0603 73.312 50.5465 72.6889C52.0328 72.0658 53 70.6116 53 69V28.2718C53 27.8673 53.2436 27.5027 53.6173 27.3479L62.1073 23.8312C63.0874 23.4252 64.1887 23.4252 65.1688 23.8312L91.2152 34.62C92.1953 35.026 92.974 35.8047 93.38 36.7848L104.169 62.8312C104.575 63.8113 104.575 64.9126 104.169 65.8927L93.38 91.9391C92.974 92.9193 92.1953 93.698 91.2152 94.1039L84.3827 96.9341C83.7243 97.2068 83 96.7229 83 96.0102V70.9263C83 70.0395 84.0686 69.5915 84.701 70.2132L86.1959 71.6826C87.7713 73.2313 90.3039 73.2096 91.8526 71.6342C93.4012 70.0588 93.3795 67.5262 91.8041 65.9775L81.8041 56.1474C80.6548 55.0177 78.9397 54.688 77.4534 55.3111C75.9672 55.9342 75 57.3884 75 59V100.152C75 100.557 74.7564 100.921 74.3827 101.076L65.1688 104.893C64.1887 105.299 63.0874 105.299 62.1073 104.893L36.0609 94.1039C35.0808 93.698 34.3021 92.9193 33.8961 91.9391L23.1073 65.8927C22.7013 64.9126 22.7013 63.8113 23.1073 62.8312L33.8961 36.7848C34.3021 35.8047 35.0808 35.026 36.0609 34.62ZM65.8696 56.2917C65.8696 55.1871 64.9741 54.2917 63.8696 54.2917C62.765 54.2917 61.8696 55.1871 61.8696 56.2917V56.2917C61.8696 56.5317 61.7087 56.7404 61.4817 56.8187C59.7798 57.4057 58.7105 58.5374 58.2867 59.5363C58.2813 59.549 58.276 59.5618 58.2709 59.5746C57.95 60.3769 57.7266 61.5489 58.0356 62.7809C58.3689 64.1098 59.2775 65.3125 60.8574 66.052C61.6797 66.4369 62.4313 66.6528 63.0606 66.806C63.3528 66.8771 63.5768 66.9269 63.7661 66.9689L63.7661 66.9689L63.7663 66.9689L63.7663 66.969C64.0431 67.0304 64.2456 67.0754 64.4784 67.1466C64.7799 67.2389 64.8719 67.309 64.9141 67.3479C64.9518 67.3826 65.081 67.5127 65.225 67.9446C65.2218 67.935 65.2218 67.9351 65.2231 67.9447C65.227 67.9728 65.2419 68.0823 65.2199 68.2677C65.1929 68.4956 65.1209 68.7355 65.0094 68.9382C64.9014 69.1347 64.7732 69.268 64.6356 69.3528C64.5086 69.4311 64.2916 69.52 63.9073 69.5128C62.4577 69.4854 62.0208 68.6731 62.005 68.6438C62.0047 68.6432 62.0045 68.6429 62.0045 68.643C61.6227 67.6065 60.4729 67.0759 59.4364 67.4577C58.4 67.8396 57.8693 68.9893 58.2512 70.0258C58.6475 71.1016 59.7797 72.5155 61.724 73.1627C61.81 73.1913 61.8696 73.2711 61.8696 73.3617V73.3617C61.8696 74.4663 62.765 75.3617 63.8696 75.3617C64.9741 75.3617 65.8696 74.4663 65.8696 73.3617V73.3617C65.8696 73.253 65.9374 73.1564 66.0378 73.1148C67.1697 72.645 67.9964 71.808 68.5147 70.8652C69.2385 69.5485 69.4289 67.9072 69.0197 66.6797C68.7179 65.7744 68.2753 65.0055 67.6238 64.4056C66.9769 63.8098 66.2624 63.5095 65.6492 63.3218C65.2794 63.2086 64.8126 63.1034 64.4285 63.0167C64.2695 62.9809 64.1246 62.9482 64.0066 62.9195C63.5135 62.7994 63.0431 62.6586 62.5531 62.4292C62.2653 62.2945 62.123 62.162 62.0516 62.0763C61.9805 61.9911 61.9396 61.9043 61.9155 61.8078C61.8651 61.6069 61.8885 61.3514 61.9555 61.1419C61.9599 61.1283 61.9678 61.1157 61.9773 61.1049V61.1049C62.0693 61.0002 62.5579 60.4437 63.9073 60.4183C64.7802 60.4018 65.1389 60.5934 65.2584 60.6755C65.3762 60.7564 65.4544 60.863 65.5231 61.0402C65.9222 62.0701 67.0808 62.5814 68.1107 62.1822C69.1406 61.783 69.6519 60.6245 69.2527 59.5946C68.9863 58.9074 68.4893 58.0422 67.5236 57.3787C67.1282 57.107 66.6875 56.892 66.2021 56.7348C66.008 56.672 65.8696 56.4956 65.8696 56.2917V56.2917Z" fill="black"/><text x="0" y="143" fill="#000000" font-size="5px" font-weight="bold" font-family="'Helvetica Neue', Helvetica, Arial-Unicode, Arial, Sans-serif">Created by illangArtGalley</text><text x="0" y="148" fill="#000000" font-size="5px" font-weight="bold" font-family="'Helvetica Neue', Helvetica, Arial-Unicode, Arial, Sans-serif">from the Noun Project</text></svg>